<?xml version="1.0"?>
<svg width="500" height="500" xmlns="http://www.w3.org/2000/svg" xmlns:svg="http://www.w3.org/2000/svg" preserveAspectRatio="xMidYMid meet">
 <metadata>Created by potrace 1.13, written by Peter Selinger 2001-2015</metadata>
 <g>
  <title>Layer 1</title>
  <g id="svg_1" fill="#000000" transform="translate(0,500) scale(0.10000000149011612,-0.10000000149011612) ">
   <path id="svg_2" d="m3060,4716l0,-133l-84,-7c-172,-13 -394,-87 -537,-178c-235,-151 -379,-415 -395,-728c-17,-327 74,-596 267,-788c128,-128 289,-216 582,-318l167,-58l0,-718c0,-697 -1,-718 -19,-718c-36,0 -186,31 -251,52c-104,33 -174,73 -245,140c-115,107 -172,262 -182,490l-6,118l-31,5c-17,2 -106,6 -199,7l-167,3l0,-85c0,-307 84,-572 241,-761c157,-188 436,-321 757,-360l102,-12l0,-259l0,-258l150,0l150,0l0,255l0,255l23,4c12,2 69,9 127,15c318,33 587,165 757,370c66,80 155,257 183,366c48,185 53,473 11,630c-73,276 -259,492 -543,630c-116,57 -299,117 -445,146l-113,22l0,672l0,671l63,-7c110,-13 199,-38 285,-80c177,-85 263,-228 279,-461l6,-88l200,0l200,0l-7,106c-8,128 -18,181 -57,299c-115,353 -441,583 -885,623l-79,7l-3,133l-3,132l-149,0l-150,0l0,-134zm0,-1162l0,-625l-22,6c-13,4 -80,30 -150,57c-276,109 -391,228 -432,447c-56,293 32,532 236,644c92,51 242,94 331,96l37,1l0,-626zm510,-1170c292,-89 455,-235 506,-451c20,-86 14,-318 -10,-408c-53,-191 -165,-316 -349,-389c-71,-28 -217,-61 -304,-69l-53,-4l0,688l0,687l63,-14c34,-8 100,-26 147,-40z"/>
  </g>
  <line stroke="#000000" id="svg_4" y2="241" x2="195" y1="241" x1="41" stroke-linecap="null" stroke-linejoin="null" stroke-dasharray="null" stroke-width="39" fill="none"/>
 </g>
</svg>