<?xml version="1.0" standalone="no"?>
<!DOCTYPE svg PUBLIC "-//W3C//DTD SVG 20010904//EN"
 "http://www.w3.org/TR/2001/REC-SVG-20010904/DTD/svg10.dtd">
<svg version="1.0" xmlns="http://www.w3.org/2000/svg"
 width="500.000000pt" height="500.000000pt" viewBox="0 0 500.000000 500.000000"
 preserveAspectRatio="xMidYMid meet">
<metadata>
Created by potrace 1.13, written by Peter Selinger 2001-2015
</metadata>
<g transform="translate(0.000000,500.000000) scale(0.100000,-0.100000)"
fill="#000000" stroke="none">
<path d="M2350 4716 l0 -133 -84 -7 c-172 -13 -394 -87 -537 -178 -235 -151
-379 -415 -395 -728 -17 -327 74 -596 267 -788 128 -128 289 -216 582 -318
l167 -58 0 -718 c0 -697 -1 -718 -19 -718 -36 0 -186 31 -251 52 -104 33 -174
73 -245 140 -115 107 -172 262 -182 490 l-6 118 -31 5 c-17 2 -106 6 -199 7
l-167 3 0 -85 c0 -307 84 -572 241 -761 157 -188 436 -321 757 -360 l102 -12
0 -259 0 -258 150 0 150 0 0 255 0 255 23 4 c12 2 69 9 127 15 318 33 587 165
757 370 66 80 155 257 183 366 48 185 53 473 11 630 -73 276 -259 492 -543
630 -116 57 -299 117 -445 146 l-113 22 0 672 0 671 63 -7 c110 -13 199 -38
285 -80 177 -85 263 -228 279 -461 l6 -88 200 0 200 0 -7 106 c-8 128 -18 181
-57 299 -115 353 -441 583 -885 623 l-79 7 -3 133 -3 132 -149 0 -150 0 0
-134z m0 -1162 l0 -625 -22 6 c-13 4 -80 30 -150 57 -276 109 -391 228 -432
447 -56 293 32 532 236 644 92 51 242 94 331 96 l37 1 0 -626z m510 -1170
c292 -89 455 -235 506 -451 20 -86 14 -318 -10 -408 -53 -191 -165 -316 -349
-389 -71 -28 -217 -61 -304 -69 l-53 -4 0 688 0 687 63 -14 c34 -8 100 -26
147 -40z"/>
</g>
</svg>
