<?xml version="1.0" standalone="no"?>
<!DOCTYPE svg PUBLIC "-//W3C//DTD SVG 20010904//EN"
 "http://www.w3.org/TR/2001/REC-SVG-20010904/DTD/svg10.dtd">
<svg version="1.0" xmlns="http://www.w3.org/2000/svg"
 width="588.000000pt" height="299.000000pt" viewBox="0 0 588.000000 299.000000">
<g transform="translate(0.000000,299.000000) scale(0.100000,-0.100000)"
fill="#000000">
<path stroke-width="0.9" d="M40 1495 l0 -1465 2428 0 c2328 0 2429 1 2477 18 72 27 241 117 280
149 18 15 63 53 100 83 273 225 460 594 510 1005 44 357 -24 726 -188 1020
-61 110 -78 137 -136 211 -146 186 -381 362 -572 428 -39 14 -314 16 -2471 16
l-2428 0 0 -1465z m4921 1390 c38 -19 73 -35 79 -35 25 0 202 -128 287 -207
221 -206 369 -478 436 -803 98 -472 -10 -971 -291 -1339 -49 -65 -148 -171
-159 -171 -5 0 -29 -20 -53 -45 -24 -25 -48 -45 -52 -45 -4 0 -41 -23 -81 -50
-41 -28 -79 -50 -86 -50 -6 0 -43 -16 -81 -35 l-70 -35 -2400 0 -2400 0 0
1425 0 1425 2402 0 2402 0 67 -35z"/>
</g>
</svg>
